<mxfile host="app.diagrams.net" agent="Mozilla/5.0 (Windows NT 10.0; Win64; x64) AppleWebKit/537.36 (KHTML, like Gecko) Chrome/132.0.0.0 Safari/537.36" version="26.0.11">
  <diagram name="Page-1" id="VXmvWt4ulUtaFFTU7CN5">
    <mxGraphModel dx="889" dy="460" grid="1" gridSize="10" guides="1" tooltips="1" connect="1" arrows="1" fold="1" page="1" pageScale="1" pageWidth="850" pageHeight="1100" math="0" shadow="0">
      <root>
        <mxCell id="0" />
        <mxCell id="1" parent="0" />
        <mxCell id="ZGNZtU1_tmytGkaKZX0B-4" value="" style="edgeStyle=orthogonalEdgeStyle;rounded=0;orthogonalLoop=1;jettySize=auto;html=1;" edge="1" parent="1" source="ZGNZtU1_tmytGkaKZX0B-1" target="ZGNZtU1_tmytGkaKZX0B-3">
          <mxGeometry relative="1" as="geometry" />
        </mxCell>
        <mxCell id="ZGNZtU1_tmytGkaKZX0B-1" value="User sees hate speech" style="rounded=1;whiteSpace=wrap;html=1;" vertex="1" parent="1">
          <mxGeometry x="20" y="150" width="120" height="60" as="geometry" />
        </mxCell>
        <mxCell id="ZGNZtU1_tmytGkaKZX0B-6" value="" style="edgeStyle=orthogonalEdgeStyle;rounded=0;orthogonalLoop=1;jettySize=auto;html=1;" edge="1" parent="1" source="ZGNZtU1_tmytGkaKZX0B-3" target="ZGNZtU1_tmytGkaKZX0B-5">
          <mxGeometry relative="1" as="geometry" />
        </mxCell>
        <mxCell id="ZGNZtU1_tmytGkaKZX0B-3" value="User Accesses Hate Gate Website" style="whiteSpace=wrap;html=1;rounded=1;" vertex="1" parent="1">
          <mxGeometry x="170" y="150" width="120" height="60" as="geometry" />
        </mxCell>
        <mxCell id="ZGNZtU1_tmytGkaKZX0B-8" value="" style="edgeStyle=orthogonalEdgeStyle;rounded=0;orthogonalLoop=1;jettySize=auto;html=1;" edge="1" parent="1" source="ZGNZtU1_tmytGkaKZX0B-5" target="ZGNZtU1_tmytGkaKZX0B-7">
          <mxGeometry relative="1" as="geometry" />
        </mxCell>
        <mxCell id="ZGNZtU1_tmytGkaKZX0B-5" value="User Logs in" style="whiteSpace=wrap;html=1;rounded=1;" vertex="1" parent="1">
          <mxGeometry x="310" y="150" width="120" height="60" as="geometry" />
        </mxCell>
        <mxCell id="ZGNZtU1_tmytGkaKZX0B-10" value="" style="edgeStyle=orthogonalEdgeStyle;rounded=0;orthogonalLoop=1;jettySize=auto;html=1;" edge="1" parent="1" source="ZGNZtU1_tmytGkaKZX0B-7" target="ZGNZtU1_tmytGkaKZX0B-9">
          <mxGeometry relative="1" as="geometry" />
        </mxCell>
        <mxCell id="ZGNZtU1_tmytGkaKZX0B-7" value="User Submit Test/Link/Image&lt;div&gt;+ explanation&lt;/div&gt;" style="whiteSpace=wrap;html=1;rounded=1;" vertex="1" parent="1">
          <mxGeometry x="460" y="150" width="120" height="60" as="geometry" />
        </mxCell>
        <mxCell id="ZGNZtU1_tmytGkaKZX0B-12" value="" style="edgeStyle=orthogonalEdgeStyle;rounded=0;orthogonalLoop=1;jettySize=auto;html=1;" edge="1" parent="1" source="ZGNZtU1_tmytGkaKZX0B-9" target="ZGNZtU1_tmytGkaKZX0B-11">
          <mxGeometry relative="1" as="geometry" />
        </mxCell>
        <mxCell id="ZGNZtU1_tmytGkaKZX0B-9" value="AI Analysis" style="whiteSpace=wrap;html=1;rounded=1;" vertex="1" parent="1">
          <mxGeometry x="610" y="150" width="120" height="60" as="geometry" />
        </mxCell>
        <mxCell id="ZGNZtU1_tmytGkaKZX0B-15" value="" style="edgeStyle=orthogonalEdgeStyle;rounded=0;orthogonalLoop=1;jettySize=auto;html=1;" edge="1" parent="1" source="ZGNZtU1_tmytGkaKZX0B-11" target="ZGNZtU1_tmytGkaKZX0B-14">
          <mxGeometry relative="1" as="geometry" />
        </mxCell>
        <mxCell id="ZGNZtU1_tmytGkaKZX0B-11" value="User Given Analysis results" style="whiteSpace=wrap;html=1;rounded=1;" vertex="1" parent="1">
          <mxGeometry x="770" y="150" width="120" height="60" as="geometry" />
        </mxCell>
        <mxCell id="ZGNZtU1_tmytGkaKZX0B-14" value="" style="whiteSpace=wrap;html=1;rounded=1;" vertex="1" parent="1">
          <mxGeometry x="920" y="150" width="120" height="60" as="geometry" />
        </mxCell>
      </root>
    </mxGraphModel>
  </diagram>
</mxfile>
